<svg height="512" viewBox="0 0 16 16" width="512" xmlns="http://www.w3.org/2000/svg"><g fill="#f00"><path d="m15.5854.24707c-.495117-.24707-1.09521-.0463867-1.3418.447266l-1.72363 3.44727h-11.3818c-.552246 0-1 .447754-1 1 0 .386169.225769.711243.546265.877869l-.378296.567444c-.306152.459473-.182129 1.08057.277344 1.38672.17041.11377.363281.167969.553711.167969.323242 0 .640137-.15625.833008-.445313l1-1.5c.0114136-.0170898.0122071-.0371704.0224-.0546875h4.14557v2h2v-2h3.14557c.0101929.0175171.0109863.0375977.0223999.0546875l1 1.5c.192871.289062.509766.445313.833008.445313.19043 0 .383301-.0541992.553711-.167969.459473-.306152.583496-.927246.277344-1.38672l-.820862-1.23132 1.88336-3.76672c.24707-.494141.046875-1.09473-.447266-1.3418z" transform="translate(-.138 7.858)"/><path d="m8 0-8 7h4z"/><path d="m8 7-8-7 4 7z" transform="translate(8)"/><path d="m2 7v4h2v-4h2l-3-7-3 7z" transform="translate(5)"/></g></svg>